<svg width="1368" height="770" viewBox="0 0 1368 770" preserveAspectRatio="none" fill="none" xmlns="http://www.w3.org/2000/svg">
<rect x="0.5" width="1367" height="768" fill="#E7EDE3"/>
<path d="M51.1211 546.055V554H35.3828V549.875H37.6445V539.48H35.3828V535.355H51.1211V542.773H48.1211L46.9961 539.48H43.6445V542.527H46.6445V545.598H43.6445V549.875H46.9961L48.1211 546.055H51.1211ZM60.918 554.34C60.2773 554.34 59.7305 554.293 59.2773 554.199C58.8242 554.105 58.4023 553.953 58.0117 553.742C57.6289 553.531 57.2188 553.258 56.7812 552.922L56.3711 554H52.5859V548.293H56.3477C56.5898 548.949 56.9609 549.414 57.4609 549.688C57.9688 549.953 58.5898 550.086 59.3242 550.086C59.7773 550.086 60.1641 549.996 60.4844 549.816C60.8047 549.629 60.9648 549.383 60.9648 549.078C60.9648 548.695 60.8008 548.41 60.4727 548.223C60.1445 548.027 59.6836 547.848 59.0898 547.684C58.332 547.48 57.6445 547.266 57.0273 547.039C56.418 546.812 55.8711 546.578 55.3867 546.336C54.418 545.852 53.6367 545.164 53.043 544.273C52.4492 543.383 52.1523 542.199 52.1523 540.723C52.1523 539.59 52.3984 538.59 52.8906 537.723C53.375 536.863 54.0703 536.195 54.9766 535.719C55.8906 535.234 56.9648 534.992 58.1992 534.992C59.707 534.992 60.8984 535.473 61.7734 536.434L62.3711 535.332H65.7344V540.922H62.1367C61.8008 540.219 61.4297 539.73 61.0234 539.457C60.6172 539.184 60.0586 539.047 59.3477 539.047C58.8086 539.047 58.3906 539.145 58.0938 539.34C57.7969 539.527 57.6484 539.789 57.6484 540.125C57.6484 540.5 57.8633 540.785 58.293 540.98C58.7148 541.184 59.3164 541.371 60.0977 541.543C61.4648 541.855 62.6445 542.25 63.6367 542.727C64.6055 543.203 65.3789 543.879 65.957 544.754C66.543 545.621 66.8359 546.742 66.8359 548.117C66.8359 549.281 66.5938 550.336 66.1094 551.281C65.6172 552.227 64.918 552.973 64.0117 553.52C63.1133 554.066 62.082 554.34 60.918 554.34ZM78.7539 554H68.6758V549.805H70.5039V539.48H68.7227V535.332H78.707C80.2383 535.332 81.5938 535.5 82.7734 535.836C83.9609 536.164 84.8906 536.719 85.5625 537.5C86.2422 538.281 86.582 539.355 86.582 540.723C86.582 543.113 85.9336 544.832 84.6367 545.879C83.3398 546.926 81.3945 547.449 78.8008 547.449C78.1367 547.449 77.5547 547.41 77.0547 547.332V549.805H78.7539V554ZM77.0781 539.48V543.629H77.5586C79.332 543.629 80.2188 542.848 80.2188 541.285C80.2188 540.707 80.0234 540.262 79.6328 539.949C79.2422 539.637 78.7188 539.48 78.0625 539.48H77.0781ZM94.8438 549.875V554H86.6172V549.875H88.4688L91.6797 539.48H89.2305V535.355H100.844L105.004 549.875H106.844V554H96.3555V549.875H97.8789L97.375 547.883H93.1445L92.6172 549.875H94.8438ZM96.8125 545.047L95.4531 539.34L93.7422 545.047H96.8125ZM116.594 554.34C114.859 554.34 113.281 553.973 111.859 553.238C110.422 552.512 109.273 551.418 108.414 549.957C107.562 548.496 107.137 546.699 107.137 544.566C107.137 542.785 107.461 541.164 108.109 539.703C108.758 538.258 109.707 537.113 110.957 536.27C112.215 535.418 113.734 534.992 115.516 534.992C116.422 534.992 117.234 535.207 117.953 535.637C118.68 536.059 119.203 536.594 119.523 537.242L120.004 535.355H123.648V543.008H119.91V542.621C119.91 541.629 119.68 540.816 119.219 540.184C118.766 539.551 118.09 539.234 117.191 539.234C116.59 539.234 116.035 539.465 115.527 539.926C115.027 540.395 114.633 541.008 114.344 541.766C114.055 542.516 113.91 543.289 113.91 544.086C113.91 545.656 114.301 546.887 115.082 547.777C115.863 548.66 116.934 549.102 118.293 549.102C119.254 549.102 120.145 548.941 120.965 548.621C121.793 548.301 122.473 547.957 123.004 547.59L123.262 547.812V552.805C122.27 553.375 121.223 553.773 120.121 554C119.02 554.227 117.844 554.34 116.594 554.34ZM141.379 546.055V554H125.641V549.875H127.902V539.48H125.641V535.355H141.379V542.773H138.379L137.254 539.48H133.902V542.527H136.902V545.598H133.902V549.875H137.254L138.379 546.055H141.379ZM26.3008 597H17.6875V592.875H19.5625V582.48H17.6875V578.355H26.3242C29.7148 578.355 32.3086 579.141 34.1055 580.711C35.9102 582.273 36.8125 584.59 36.8125 587.66C36.8125 590.652 35.918 592.957 34.1289 594.574C32.3398 596.191 29.7305 597 26.3008 597ZM25.5625 582.48V592.875H26.3008C27.1758 592.875 27.8906 592.652 28.4453 592.207C29 591.754 29.4102 591.133 29.6758 590.344C29.9414 589.555 30.0742 588.66 30.0742 587.66C30.0742 586.129 29.7773 584.883 29.1836 583.922C28.5898 582.961 27.6289 582.48 26.3008 582.48H25.5625ZM54.9531 589.055V597H39.2148V592.875H41.4766V582.48H39.2148V578.355H54.9531V585.773H51.9531L50.8281 582.48H47.4766V585.527H50.4766V588.598H47.4766V592.875H50.8281L51.9531 589.055H54.9531ZM63.4961 592.805V597H56.0312V592.805H57.9297V582.457H56.0781V578.332H64.6914L70.5273 589.418V582.48H68.6523V578.355H76.1172V582.48H74.2656V597H67.1641L61.6211 586.699V592.805H63.4961ZM91.4922 592.781V597H81.0508V592.781H82.9727V582.48H81.3203L80.8164 585.691H77.5234V578.355H95.0664V585.691H91.7852L91.2812 582.48H89.5703V592.781H91.4922ZM103.129 592.875V597H94.9023V592.875H96.7539L99.9648 582.48H97.5156V578.355H109.129L113.289 592.875H115.129V597H104.641V592.875H106.164L105.66 590.883H101.43L100.902 592.875H103.129ZM105.098 588.047L103.738 582.34L102.027 588.047H105.098ZM126.402 592.875V597H116.664V592.875H118.539V582.48H116.664V578.355H126.402V582.48H124.539V592.875H126.402ZM138.449 597H128.711V592.875H130.586V582.48H128.711V578.355H140.688C142.625 578.355 144.047 578.746 144.953 579.527C145.867 580.309 146.324 581.605 146.324 583.418C146.324 584.629 145.984 585.562 145.305 586.219C144.625 586.875 143.66 587.316 142.41 587.543C143.535 587.723 144.344 588.145 144.836 588.809C145.336 589.473 145.586 590.301 145.586 591.293V592.805H148.199V597H144.426C143.621 597 142.973 596.973 142.48 596.918C141.988 596.855 141.598 596.715 141.309 596.496C141.027 596.27 140.793 595.918 140.605 595.441C140.324 594.723 140.184 593.523 140.184 591.844C140.184 590.883 140.027 590.172 139.715 589.711C139.402 589.242 138.832 589.008 138.004 589.008H136.586V592.875H138.449V597ZM136.586 582.48V586.348H138.191C139.043 586.348 139.676 586.195 140.09 585.891C140.504 585.586 140.711 585.051 140.711 584.285C140.711 583.723 140.496 583.281 140.066 582.961C139.645 582.641 139.098 582.48 138.426 582.48H136.586ZM164.922 589.055V597H149.184V592.875H151.445V582.48H149.184V578.355H164.922V585.773H161.922L160.797 582.48H157.445V585.527H160.445V588.598H157.445V592.875H160.797L161.922 589.055H164.922Z" fill="#2E4682"/>
<path d="M58.7115 408C63.6834 401.851 58.0405 379.85 46.1079 357.95C32.2675 332.549 16.3764 323.685 15.5 279.025C15.4972 256.815 25.7908 235.031 40.7059 225.51C43.5873 223.671 75.8042 200.588 107.5 216.656" stroke="#D9D9D9" stroke-width="7" stroke-linecap="round"/>
<path d="M80.5 467.866C96.0812 516.962 100.166 507.001 113.502 476.22C121.809 457.049 126.962 439.419 128.5 433" stroke="#D9D9D9" stroke-width="7" stroke-linecap="round"/>
<path d="M84.0981 233C110.158 253.354 149.847 277.878 180.243 246.885C205.586 221.044 241.282 263.47 229.004 292.515C229.004 292.515 200.232 405.019 205.586 443.202C210.941 481.386 202.591 496.625 192.062 475.311C181.752 454.442 162.395 398.848 136.337 398.848C121.028 398.848 112.05 421.583 91.7176 432.017C68.8725 443.741 44.3322 431.882 34.5 412.945" stroke="#2E4682" stroke-width="7" stroke-linecap="round"/>
<path d="M1187.11 768.104C1178.01 745.817 1162.09 696.124 1184.52 692.959C1204.95 690.077 1221.64 717.857 1229.1 735.907C1218.87 708.399 1207.4 661.8 1231.85 662.056C1257.85 662.328 1269.58 703.528 1272.2 724.095C1278.43 734.233 1295.25 748.51 1312.7 724.518C1330.15 700.526 1292.11 654.092 1258 632.409C1250.27 622.571 1270.7 616.591 1312.7 640.5C1359.29 667.022 1358.5 736.312 1366 768.104L1187.11 768.104Z" fill="#C7D6C6"/>
<path opacity="0.5" d="M128.001 86.0645C104.001 75.2645 79.7563 125.5 80.5011 129.565C82.5011 140.5 104.881 105.828 112.001 100.565C123.501 92.0646 134.895 100.565 145.501 100.565C164 100.565 189.501 92.5646 206.501 74.0646C220.101 59.2646 217.001 62.0646 230.501 62.0646C240.501 68.5646 252.501 75.6543 249.001 92.0646C246.201 105.193 271.001 112.065 286.001 112.065C286.001 112.065 297.501 116.465 303.501 106.065C309.501 95.6646 301.001 94.7312 296.001 95.5646C284.668 98.7312 259.401 97.5646 249.001 67.5646C238.601 37.5646 213.001 55.0646 201.501 67.5646C187.001 78.2312 152.001 96.8645 128.001 86.0645Z" fill="#D9D9D9"/>
<path opacity="0.66" d="M1141.59 712.322C1115.78 724.235 1089.72 668.822 1090.52 664.338C1092.67 652.276 1116.73 690.522 1124.39 696.327C1136.75 705.703 1149 696.327 1160.4 696.327C1180.29 696.327 1207.71 705.152 1225.99 725.558C1240.61 741.884 1237.28 738.795 1251.79 738.795C1262.55 731.625 1275.45 723.805 1271.68 705.703C1268.67 691.222 1295.34 683.642 1311.47 683.642C1311.47 683.642 1323.83 678.788 1330.28 690.26C1336.73 701.732 1327.59 702.762 1322.22 701.842C1310.03 698.349 1282.87 699.636 1271.68 732.728C1260.5 765.82 1232.98 746.517 1220.61 732.728C1205.02 720.962 1167.39 700.408 1141.59 712.322Z" fill="#D9D9D9"/>
<path opacity="0.5" d="M436.063 719.5C460.063 730.3 477.73 695 483.563 676C474.23 682.167 459.184 699.737 452.063 705C440.563 713.5 429.063 706.5 418.563 705C408.063 703.5 374.563 713 357.563 731.5C343.963 746.3 347.063 743.5 333.563 743.5C323.563 737 311.563 729.91 315.063 713.5C317.863 700.372 293.063 693.5 278.063 693.5C278.063 693.5 266.563 689.1 260.563 699.5C254.563 709.9 263.063 710.833 268.063 710C279.397 706.833 304.663 708 315.063 738C325.463 768 351.063 750.5 362.563 738C377.063 727.333 412.063 708.7 436.063 719.5Z" fill="#D9D9D9"/>
<path opacity="0.16" d="M109.506 99.0516C67.7725 73.7966 31.402 81.8863 0.5 83.5528V642.511C27.8363 644.011 90.3475 645.714 119.693 638.011C163.499 626.512 268.94 505.521 264.355 349.033C259.771 192.545 160.014 129.617 109.506 99.0516Z" fill="url(#paint0_linear_686_370)" stroke="#848484"/>
<path d="M27.75 170H17.7012V165.188H19.8887V153.061H17.7012V148.248H27.7773C31.7331 148.248 34.7591 149.164 36.8555 150.996C38.9609 152.819 40.0137 155.521 40.0137 159.104C40.0137 162.594 38.9701 165.283 36.8828 167.17C34.7956 169.057 31.7513 170 27.75 170ZM26.8887 153.061V165.188H27.75C28.7708 165.188 29.6048 164.928 30.252 164.408C30.8991 163.88 31.3776 163.155 31.6875 162.234C31.9974 161.314 32.1523 160.27 32.1523 159.104C32.1523 157.317 31.806 155.863 31.1133 154.742C30.4206 153.621 29.2995 153.061 27.75 153.061H26.8887ZM58.1152 165.078V170H45.9336V165.078H48.1758V153.061H46.248L45.6602 156.807H41.8184V148.248H62.2852V156.807H58.457L57.8691 153.061H55.873V165.078H58.1152ZM64.9375 170.396C63.8802 170.396 62.9779 170.077 62.2305 169.439C61.5195 168.847 61.1641 168.018 61.1641 166.951C61.1641 165.903 61.5195 165.092 62.2305 164.518C62.9505 163.898 63.8529 163.588 64.9375 163.588C66.1133 163.588 67.0658 163.898 67.7949 164.518C68.5241 165.137 68.8887 165.949 68.8887 166.951C68.8887 167.972 68.515 168.801 67.7676 169.439C67.0111 170.059 66.0814 170.369 64.9785 170.369L64.9375 170.396ZM88.4258 165.188V170H77.502V165.188H79.6895V153.061H77.502V148.248L88.4258 148.221V153.061H86.6895V156.643H91.9258V153.061H90.1895V148.221L101.1 148.248V153.061H98.9258V165.188H101.1V170H90.1895V165.188H91.9258V161.318H86.6895V165.188H88.4258ZM112.16 165.188V170H102.562V165.188H104.723L108.469 153.061H105.611V148.248H119.16L124.014 165.188H126.16V170H113.924V165.188H115.701L115.113 162.863H110.178L109.562 165.188H112.16ZM114.457 159.555L112.871 152.896L110.875 159.555H114.457ZM141.814 165.105V170H129.947V165.105H132.039V161.1L126.311 153.061H124.766V148.248H136.414V153.061H135.184L137.672 156.697L139.627 153.061H137.645V148.248H146.354V153.061H143.893L139.668 160.361V165.105H141.814ZM155.117 165.188V170H145.52V165.188H147.68L151.426 153.061H148.568V148.248H162.117L166.971 165.188H169.117V170H156.881V165.188H158.658L158.07 162.863H153.135L152.52 165.188H155.117ZM157.414 159.555L155.828 152.896L153.832 159.555H157.414ZM178.961 165.105V170H170.252V165.105H172.467V153.033H170.307V148.221H180.355L187.164 161.154V153.061H184.977V148.248H193.686V153.061H191.525V170H183.24L176.773 157.982V165.105H178.961ZM207.59 165.188V170H196.229V165.188H198.416V153.061H196.229V148.248H207.59V153.061H205.416V165.188H207.59ZM225.842 165.188V170H216.654V165.188H219.293V153.061H216.654V148.248H228.385L232.609 158.721L236.793 148.248H247.73V153.061H245.105V165.188H247.73V170H236.342V165.188H238.105V157.066L233.293 170H229.342L223.654 156.752V165.188H225.842ZM260.035 170.396C257.766 170.396 255.801 169.909 254.143 168.934C252.493 167.958 251.235 166.618 250.369 164.914C249.512 163.21 249.084 161.264 249.084 159.076C249.084 156.807 249.512 154.829 250.369 153.143C251.226 151.447 252.475 150.139 254.115 149.219C255.765 148.289 257.738 147.824 260.035 147.824C262.323 147.824 264.292 148.285 265.941 149.205C267.582 150.135 268.831 151.447 269.688 153.143C270.553 154.838 270.986 156.816 270.986 159.076C270.986 161.264 270.558 163.21 269.701 164.914C268.844 166.618 267.587 167.958 265.928 168.934C264.278 169.909 262.314 170.396 260.035 170.396ZM260.035 165.543C261.02 165.543 261.771 164.946 262.291 163.752C262.82 162.558 263.084 160.963 263.084 158.967C263.084 157.025 262.829 155.49 262.318 154.359C261.817 153.229 261.056 152.664 260.035 152.664C259.005 152.664 258.24 153.229 257.738 154.359C257.237 155.49 256.986 157.025 256.986 158.967C256.986 160.963 257.246 162.558 257.766 163.752C258.285 164.946 259.042 165.543 260.035 165.543ZM284.48 165.188V170H273.557V165.188H275.744V153.061H273.557V148.248L284.48 148.221V153.061H282.744V156.643H287.98V153.061H286.244V148.221L297.154 148.248V153.061H294.98V165.188H297.154V170H286.244V165.188H287.98V161.318H282.744V165.188H284.48ZM308.215 165.188V170H298.617V165.188H300.777L304.523 153.061H301.666V148.248H315.215L320.068 165.188H322.215V170H309.979V165.188H311.756L311.168 162.863H306.232L305.617 165.188H308.215ZM310.512 159.555L308.926 152.896L306.93 159.555H310.512ZM332.291 165.188V170H323.104V165.188H325.742V153.061H323.104V148.248H334.834L339.059 158.721L343.242 148.248H354.18V153.061H351.555V165.188H354.18V170H342.791V165.188H344.555V157.066L339.742 170H335.791L330.104 156.752V165.188H332.291ZM374.346 160.73V170H355.984V165.188H358.623V153.061H355.984V148.248H374.346V156.902H370.846L369.533 153.061H365.623V156.615H369.123V160.197H365.623V165.188H369.533L370.846 160.73H374.346ZM385.406 170H375.357V165.188H377.545V153.061H375.357V148.248H385.434C389.389 148.248 392.415 149.164 394.512 150.996C396.617 152.819 397.67 155.521 397.67 159.104C397.67 162.594 396.626 165.283 394.539 167.17C392.452 169.057 389.408 170 385.406 170ZM384.545 153.061V165.188H385.406C386.427 165.188 387.261 164.928 387.908 164.408C388.555 163.88 389.034 163.155 389.344 162.234C389.654 161.314 389.809 160.27 389.809 159.104C389.809 157.317 389.462 155.863 388.77 154.742C388.077 153.621 386.956 153.061 385.406 153.061H384.545Z" fill="#2E4682"/>
<defs>
<linearGradient id="paint0_linear_686_370" x1="183.272" y1="311.797" x2="10.7725" y2="314.797" gradientUnits="userSpaceOnUse">
<stop stop-color="#7A9E7E"/>
<stop offset="1" stop-color="#C7D6C6"/>
</linearGradient>
</defs>
</svg>
