<svg width="1368" height="773" viewBox="0 0 1368 773" fill="none" xmlns="http://www.w3.org/2000/svg">
<rect x="0.357422" width="1367" height="768" fill="#E7EDE3"/>
<path d="M1194.61 768.039C1184.77 746.073 1167.17 696.947 1189.48 693.025C1209.81 689.454 1227.42 716.654 1235.49 734.442C1224.33 707.295 1211.3 661.11 1235.74 660.539C1261.73 659.932 1274.85 700.712 1278.17 721.178C1284.73 731.1 1302.02 744.801 1318.66 720.233C1335.29 695.664 1312.99 657.517 1278.16 637C1289.53 637 1294.13 636.734 1295.67 636.586C1296.31 636.435 1296.76 636.481 1295.67 636.586C1293.76 637.03 1290.12 639.173 1318.66 646.5C1370.58 659.833 1357.79 736.519 1366.36 768.039L1194.61 768.039Z" fill="#C7D6C6"/>
<path opacity="0.29" d="M109.506 70.255C87.9084 52.6564 31.402 53.0897 0.5 54.7562V613.714C27.8363 615.214 90.3475 616.918 119.693 609.215C163.499 597.715 268.94 476.725 264.355 320.236C259.771 163.748 136.503 92.2534 109.506 70.255Z" fill="#7A9E7E" stroke="#848484"/>
<path d="M150.357 52.5C126.357 41.7 108.691 77 102.857 96C112.191 89.8333 127.237 72.263 134.357 67C145.857 58.5 157.357 65.5 167.857 67C178.357 68.5 211.857 59 228.857 40.5C242.457 25.7 239.357 28.5 252.857 28.5C262.857 35 274.857 42.0898 271.357 58.5C268.557 71.6282 293.357 78.5 308.357 78.5C308.357 78.5 319.857 82.9 325.857 72.5C331.857 62.1 323.357 61.1667 318.357 62C307.024 65.1667 281.757 64 271.357 34C260.957 4.00001 235.357 21.5 223.857 34C209.357 44.6667 174.357 63.3 150.357 52.5Z" fill="#D9D9D9"/>
<path d="M435.921 719.5C459.921 730.3 477.588 695 483.421 676C474.088 682.167 459.041 699.737 451.921 705C440.421 713.5 428.921 706.5 418.421 705C407.921 703.5 374.421 713 357.421 731.5C343.821 746.3 346.921 743.5 333.421 743.5C323.421 737 311.421 729.91 314.921 713.5C317.721 700.372 292.921 693.5 277.921 693.5C277.921 693.5 266.421 689.1 260.421 699.5C254.421 709.9 262.921 710.833 267.921 710C279.254 706.833 304.521 708 314.921 738C325.321 768 350.921 750.5 362.421 738C376.921 727.333 411.921 708.7 435.921 719.5Z" fill="#D9D9D9"/>
</svg>
